<svg width="64" xmlns="http://www.w3.org/2000/svg" height="64" viewBox="0 0 64 64" xmlns:xlink="http://www.w3.org/1999/xlink" enable-background="new 0 0 64 64">
<path fill="#2b5ea5" d="M32.011,8C23.897,8,17,11.875,17,17.475V26h5v-7.579c0-3.789,4.706-5.684,10-5.684  c5.294,0,10,1.896,10,5.684V26h5v-8.525C47,11.875,41.078,8,32.965,8H32.011z"/>
<path fill="#2573ba" d="m52,56-40,0 0-28 40,0 0,5-20,0 0,3 20,0 0,4-20,0 0,4 20,0 0,4-20,0 0,3 20,0z"/>
<g fill="#2b5ea5">
<path d="m36,40 16,0 0-4-20,0"/>
<path d="m36,48 16,0 0-4-20,0"/>
<path d="m32,51 5,5 15,0 0-5"/>
</g>
</svg>
