<svg width="64" xmlns="http://www.w3.org/2000/svg" height="64" viewBox="0 0 64 64" xmlns:xlink="http://www.w3.org/1999/xlink" enable-background="new 0 0 64 64">
<g transform="matrix(1.40103 0 0 1.40103 -18.05492 -1334.13238)">
<g fill="#0072c6">
<path d="m27.162,967.952c0,3.154-2.556,5.71-5.71,5.71s-5.71-2.556-5.71-5.71c0-3.154 2.556-5.71 5.71-5.71s5.71,2.556 5.71,5.71z"/>
<path d="m46.434,967.952c0,3.154-2.557,5.71-5.712,5.71-3.153,0-5.708-2.556-5.708-5.71 0-3.154 2.555-5.71 5.708-5.71 3.155,0 5.712,2.556 5.712,5.71z"/>
<path d="m36.441,982.227c0,3.154-2.556,5.71-5.71,5.71-3.154,0-5.71-2.556-5.71-5.71 0-3.153 2.556-5.71 5.71-5.71 3.154,0 5.71,2.557 5.71,5.71z"/>
<path d="m55.712,982.227c0,3.155-2.557,5.71-5.709,5.71-3.154,0-5.711-2.555-5.711-5.71 0-3.154 2.557-5.71 5.711-5.71 3.153,0 5.709,2.556 5.709,5.71z"/>
</g>
<path fill="none" stroke="#0072c6" stroke-width="3" d="m21.452,967.952l9.279,14.275 9.993-14.275 9.279,14.275"/>
</g>
</svg>
